<?xml version="1.0" standalone="no"?>
<!DOCTYPE svg PUBLIC "-//W3C//DTD SVG 20010904//EN"
 "http://www.w3.org/TR/2001/REC-SVG-20010904/DTD/svg10.dtd">
<svg version="1.0" xmlns="http://www.w3.org/2000/svg"
 width="460.000000pt" height="460.000000pt" viewBox="0 0 460.000000 460.000000"
 preserveAspectRatio="xMidYMid meet">
<metadata>
Created by potrace 1.14, written by Peter Selinger 2001-2017
</metadata>
<g transform="translate(0.000000,460.000000) scale(0.100000,-0.100000)"
fill="#000000" stroke="none">
<path d="M1028 4095 c-21 -19 -34 -35 -30 -35 5 0 23 16 42 35 44 45 36 45
-12 0z"/>
<path d="M3224 4096 c40 -37 56 -44 56 -26 0 6 -5 10 -12 10 -6 0 -27 12 -47
26 l-36 25 39 -35z"/>
<path d="M1279 4087 c30 -33 42 -34 67 -6 19 22 19 22 -3 8 -20 -12 -27 -11
-55 5 l-33 19 24 -26z"/>
<path d="M1615 4080 c10 -11 20 -20 23 -20 3 0 -3 9 -13 20 -10 11 -20 20 -23
20 -3 0 3 -9 13 -20z"/>
<path d="M903 3976 c-43 -41 -76 -76 -73 -78 3 -2 41 31 85 74 44 42 77 77 73
78 -3 0 -42 -33 -85 -74z"/>
<path d="M3300 4020 c19 -17 48 -37 64 -46 l29 -16 -24 30 c-13 16 -42 37 -64
46 l-39 16 34 -30z"/>
<path d="M1190 4014 c-58 -14 -114 -22 -124 -20 -12 3 -2 -13 30 -45 26 -27
53 -49 59 -49 6 0 42 32 80 70 38 39 67 70 65 69 -3 -1 -52 -12 -110 -25z"/>
<path d="M1404 3965 l79 -76 59 57 c32 32 58 60 58 61 0 2 -11 -4 -25 -13 -31
-20 -88 -15 -155 14 -96 42 -98 37 -16 -43z"/>
<path d="M1815 3882 c88 -89 175 -172 192 -185 18 -12 33 -26 33 -31 0 -5 8
-19 17 -30 10 -12 -6 1 -35 28 -50 49 -52 49 -72 31 -24 -21 -27 -11 -4 13 15
15 13 19 -27 54 -24 21 -63 47 -86 58 -49 25 -63 20 -133 -44 -25 -22 -14 -8
25 32 62 65 67 72 45 72 -14 0 -65 14 -113 30 -81 27 -91 28 -116 15 -60 -30
-58 -38 20 -112 39 -37 94 -91 121 -119 27 -28 63 -59 81 -69 32 -17 34 -17
78 4 l44 22 -37 -34 c-62 -56 -48 -72 30 -37 23 10 58 24 78 29 40 11 43 17
-25 -63 -23 -27 -31 -46 -28 -63 4 -22 3 -23 -13 -8 -16 15 -21 10 -69 -62
-55 -83 -62 -117 -33 -153 l18 -22 69 72 c39 39 72 78 75 86 3 9 10 15 14 14
12 -3 115 119 131 154 7 18 15 24 19 17 5 -7 22 11 46 46 40 60 156 184 225
240 l39 33 -24 25 c-13 14 -30 25 -38 25 -7 0 -42 -16 -76 -35 -45 -25 -75
-35 -107 -35 l-44 0 38 -31 c20 -17 37 -35 37 -41 0 -6 -8 -4 -18 5 -35 32
-101 14 -171 -47 l-24 -21 11 21 c6 12 28 36 49 54 21 19 43 41 50 50 12 16
10 16 -30 2 -57 -21 -140 -20 -211 1 l-59 18 29 31 c28 30 28 30 3 14 -25 -16
-28 -15 -65 10 -21 14 -57 42 -79 62 -22 20 32 -37 120 -126z"/>
<path d="M2895 4020 c-10 -16 -111 -78 -133 -82 -21 -3 -21 -3 -2 -28 10 -14
20 -22 22 -20 2 3 32 36 68 73 35 37 61 67 58 67 -4 0 -10 -5 -13 -10z"/>
<path d="M3024 3972 c38 -40 64 -58 75 -55 10 2 47 30 82 60 50 44 58 55 38
50 -15 -4 -60 -12 -101 -18 -63 -9 -80 -8 -114 6 l-39 16 59 -59z"/>
<path d="M2410 4005 c-9 -10 -23 -15 -38 -12 -22 4 -20 1 16 -36 l40 -40 26
20 25 20 -27 33 c-25 30 -29 31 -42 15z"/>
<path d="M1219 3931 l-54 -50 60 -58 c90 -86 92 -88 113 -72 16 12 16 12 0 -5
-16 -18 -14 -21 33 -61 27 -23 65 -50 83 -60 37 -20 49 -18 106 22 14 9 5 -2
-19 -25 -24 -23 -41 -45 -37 -50 4 -4 70 -7 146 -6 159 0 154 9 56 -95 -34
-35 -51 -58 -39 -52 12 6 23 14 25 19 1 4 24 24 49 45 44 35 83 46 105 30 5
-5 -37 38 -93 95 -56 56 -105 102 -109 102 -4 0 -17 -8 -28 -17 -20 -17 -20
-17 0 7 l22 25 -80 74 -79 74 -27 -24 -27 -24 23 26 c12 14 22 28 22 31 0 4
-27 27 -61 52 -85 64 -116 63 -190 -3z"/>
<path d="M2167 3947 c-32 -27 -41 -29 -57 -19 -15 9 -18 9 -14 -1 2 -7 12 -17
22 -23 14 -8 24 -2 56 33 46 51 44 53 -7 10z"/>
<path d="M3194 3951 c-90 -69 -91 -69 -70 -77 11 -4 47 2 85 14 37 12 82 22
99 22 38 0 38 2 10 40 -29 40 -72 40 -124 1z"/>
<path d="M2927 3950 c-32 -10 -127 -69 -127 -79 0 -4 6 -13 13 -20 10 -10 9
-11 -6 -5 -10 3 -29 -1 -45 -12 -38 -25 -122 -105 -122 -117 0 -6 8 -20 17
-31 15 -17 13 -17 -8 2 l-26 23 -62 -71 c-33 -39 -61 -81 -61 -93 0 -11 12
-35 27 -51 15 -17 6 -11 -20 14 -26 24 -47 38 -47 32 0 -7 -10 -34 -22 -60
-32 -69 -36 -152 -10 -197 12 -19 20 -35 17 -35 -2 0 -33 30 -70 68 l-66 67
30 -49 c45 -72 43 -133 -5 -206 l-36 -55 70 73 c38 39 72 72 76 72 3 0 -3 -15
-14 -32 -28 -46 -27 -152 1 -219 12 -27 24 -49 27 -49 3 0 22 15 41 33 21 19
27 22 13 6 -34 -39 -28 -64 34 -132 32 -34 -11 7 -95 91 -83 84 -151 148 -151
143 0 -5 5 -13 11 -17 6 -3 24 -27 40 -52 42 -67 41 -125 -6 -179 -55 -65 -41
-57 36 21 39 39 68 62 63 51 -15 -39 -16 -110 -4 -197 7 -48 16 -88 21 -88 4
0 26 19 48 42 23 22 41 37 41 31 0 -5 -9 -18 -21 -29 -35 -32 -41 -51 -25 -82
8 -16 22 -34 31 -42 9 -7 25 -27 37 -44 12 -17 -64 55 -167 159 -103 105 -174
173 -156 152 17 -21 29 -42 26 -47 -3 -6 0 -7 8 -5 15 6 84 -70 111 -122 19
-37 12 -59 -40 -124 -14 -19 -2 -8 27 24 30 31 57 57 62 57 4 0 7 -67 7 -150
0 -82 3 -150 7 -150 4 0 39 30 77 68 l69 67 -51 -59 c-62 -71 -65 -95 -20
-151 29 -37 28 -37 -20 9 -59 57 -53 66 -72 -106 -9 -78 -9 -112 0 -127 18
-36 -4 -23 -48 26 -23 25 -42 42 -42 38 0 -5 7 -16 16 -26 25 -28 19 -82 -15
-142 -17 -30 -38 -60 -46 -67 -8 -7 -12 -16 -9 -21 3 -5 26 15 51 44 25 28
128 134 227 235 100 100 182 190 184 198 2 8 -2 23 -10 32 -9 12 -6 12 10 -2
l23 -20 30 35 c83 93 88 133 29 208 -22 28 -38 51 -35 51 3 0 35 -30 71 -67
36 -38 63 -59 59 -48 -23 64 -25 257 -4 271 5 3 9 10 9 17 0 6 -32 -20 -72
-58 -57 -57 -64 -61 -35 -24 52 64 52 118 1 186 -53 70 -51 69 -76 48 -13 -11
-17 -13 -10 -5 21 24 14 40 -50 108 l-62 67 72 -70 72 -69 30 34 c55 65 53
162 -7 250 -9 14 18 -9 61 -50 l78 -75 -34 55 c-28 46 -33 65 -33 115 0 51 5
66 29 100 23 31 13 24 -44 -30 -61 -59 -69 -64 -52 -34 27 45 31 176 7 223
-24 46 -18 44 46 -19 56 -55 59 -57 35 -20 -34 52 -33 97 3 160 39 68 56 82
78 64 15 -13 15 -12 5 7 -10 18 -6 26 26 56 78 73 122 92 152 66 8 -7 2 2 -14
20 -17 17 -34 32 -40 32 -5 0 -135 -125 -288 -277 -154 -153 -282 -280 -286
-283 -3 -3 46 50 111 118 64 68 117 129 117 137 0 8 6 12 13 10 7 -3 35 28 68
77 40 60 61 83 76 82 14 0 19 5 16 16 -5 19 73 93 125 118 38 19 39 22 10 49
-47 42 -82 51 -141 33z m-428 -681 c-22 -31 -22 -32 -4 -63 l19 -31 -31 30
-31 30 32 32 c39 41 43 42 15 2z m248 -70 c-22 -22 -41 -38 -43 -36 -2 2 10
16 26 32 36 34 37 41 8 74 -21 23 -21 23 12 -3 l36 -28 -39 -39z m-166 -86
c13 -16 12 -17 -3 -4 -17 13 -22 21 -14 21 2 0 10 -8 17 -17z m52 -40 c-4 -10
-9 -11 -19 -2 -18 15 -18 15 5 15 11 0 17 -5 14 -13z m97 -217 c0 -2 -8 -10
-17 -17 -16 -13 -17 -12 -4 4 13 16 21 21 21 13z m-100 -106 c0 -5 -5 -10 -11
-10 -5 0 -7 5 -4 10 3 6 8 10 11 10 2 0 4 -4 4 -10z m157 -164 c-1 -1 -15 -12
-32 -26 l-30 -25 22 25 23 26 -23 23 -22 24 32 -23 c18 -13 32 -24 30 -24z
m-154 -163 c-4 -10 -9 -11 -19 -2 -18 15 -18 15 5 15 11 0 17 -5 14 -13z m28
-40 c13 -16 12 -17 -3 -4 -17 13 -22 21 -14 21 2 0 10 -8 17 -17z m49 -48 c13
-14 21 -25 18 -25 -2 0 -15 11 -28 25 -13 14 -21 25 -18 25 2 0 15 -11 28 -25z"/>
<path d="M1020 3943 c-23 -9 -130 -93 -130 -102 0 -5 7 -14 15 -21 9 -7 13
-15 10 -18 -3 -3 -13 2 -23 11 -17 16 -20 14 -54 -21 -35 -36 -78 -106 -78
-128 0 -5 14 -29 32 -52 l32 -41 17 28 c9 15 36 43 60 62 24 18 50 39 57 46 7
7 18 13 24 13 6 0 5 7 -3 18 -7 9 -10 14 -5 10 13 -11 42 8 112 74 62 59 64
62 47 81 -34 37 -79 53 -113 40z"/>
<path d="M2483 3904 c-12 -13 -19 -25 -15 -28 10 -6 52 29 52 43 0 17 -13 11
-37 -15z"/>
<path d="M2690 3869 c-69 -47 -102 -82 -97 -101 4 -13 -1 -17 -16 -15 -16 1
-34 -17 -74 -72 -48 -67 -66 -111 -45 -111 15 0 154 149 148 159 -3 5 0 8 7 7
17 -1 159 149 150 158 -12 11 -27 6 -73 -25z"/>
<path d="M750 3825 c-35 -36 -61 -65 -57 -65 8 0 90 80 116 113 27 34 4 16
-59 -48z"/>
<path d="M999 3724 c-82 -82 -149 -156 -149 -165 0 -8 12 -26 28 -40 15 -13
21 -17 15 -9 -7 8 -13 19 -13 26 0 28 101 104 139 104 20 0 101 -49 101 -60 0
-6 6 -10 12 -10 7 0 -19 32 -57 71 -53 54 -63 68 -40 56 17 -8 67 -20 112 -27
l83 -12 37 27 c28 20 20 9 -27 -40 -37 -38 -53 -60 -37 -50 16 10 44 18 63 17
34 -1 204 -50 204 -59 0 -2 -12 -15 -26 -28 -15 -14 -22 -25 -16 -25 6 0 14 5
17 10 11 17 51 11 81 -12 18 -14 24 -16 15 -5 -24 30 -371 372 -382 376 -6 1
-77 -64 -160 -145z"/>
<path d="M2256 3679 c-110 -107 -213 -209 -230 -228 -17 -19 -47 -51 -66 -71
-19 -20 -59 -61 -88 -91 l-53 -55 23 -30 22 -29 -28 25 -28 25 -35 -40 c-48
-55 -76 -112 -69 -141 4 -13 21 -41 38 -61 18 -21 5 -12 -28 20 l-59 57 -10
-150 -10 -151 -37 34 c-21 19 -38 34 -38 33 0 -1 9 -19 20 -40 19 -38 19 -39
0 -76 -21 -41 -73 -90 -96 -90 -8 0 -27 8 -42 17 l-27 18 28 -34 c32 -39 29
-43 -39 -60 -21 -5 -65 -16 -97 -24 -32 -9 -65 -14 -75 -11 -9 3 2 -12 25 -35
23 -23 51 -41 62 -41 26 0 163 128 154 144 -3 6 -2 7 2 3 5 -4 81 63 169 150
88 87 134 129 103 94 -61 -69 -70 -99 -42 -139 14 -18 14 -21 1 -16 -8 3 -17
12 -20 19 -3 8 -15 19 -27 26 l-22 11 6 -101 c4 -55 4 -101 0 -101 -5 0 -39 9
-78 20 -64 17 -102 20 -61 4 10 -4 22 -18 27 -31 5 -13 13 -22 17 -19 5 3 9
-1 9 -9 0 -19 -7 -18 -31 0 -40 30 -87 15 -166 -53 -34 -30 -35 -31 -15 -45
11 -9 57 -30 102 -47 46 -18 83 -34 83 -37 0 -2 -4 -12 -10 -22 -8 -15 -6 -17
13 -14 28 5 108 -62 126 -106 13 -29 2 -71 -17 -71 -4 0 -41 31 -82 70 -41 38
-78 70 -82 70 -4 0 -10 -5 -14 -12 -4 -7 -3 -8 4 -4 12 7 99 -68 133 -115 18
-26 18 -27 -3 -55 -12 -16 5 -3 38 29 64 61 74 67 74 40 1 -10 9 -41 18 -69
13 -37 15 -51 5 -51 -6 0 -11 3 -10 7 3 8 -73 74 -78 68 -3 -3 5 -17 17 -33
21 -26 40 -135 24 -135 -4 0 -19 6 -34 14 -42 21 -95 27 -130 15 -29 -10 -44
-29 -24 -29 9 0 241 -227 282 -275 28 -34 -114 100 -167 157 -19 21 -56 53
-83 72 -55 40 -58 39 -142 -43 -50 -47 -64 -73 -26 -47 32 22 75 20 134 -8 58
-27 92 -64 71 -79 -8 -5 -5 -6 9 -3 26 8 55 -22 83 -84 24 -54 26 -89 6 -116
-31 -42 -12 -36 35 11 48 47 50 48 34 17 -23 -46 -15 -132 16 -175 12 -18 -29
19 -91 80 -133 132 -151 147 -86 76 26 -29 47 -55 47 -58 0 -3 -17 -24 -37
-47 l-37 -43 46 44 47 44 21 -34 c27 -44 23 -83 -21 -177 l-33 -71 -30 27 -29
27 18 -28 c17 -27 17 -28 -11 -70 -39 -56 -251 -267 -270 -267 -8 0 -13 -4
-10 -9 4 -5 -32 -40 -79 -77 -47 -37 -85 -70 -85 -74 0 -20 31 -33 53 -23 30
14 547 522 594 584 20 27 40 46 45 43 4 -3 8 -2 8 3 0 4 23 33 50 63 61 68 78
103 59 128 -7 9 -2 7 11 -5 l24 -23 39 68 c47 79 57 136 32 178 -17 29 -17 29
2 9 11 -11 34 -33 52 -50 l33 -30 -13 27 c-10 23 -8 43 12 125 22 93 24 115
24 446 l0 348 64 -66 c70 -71 94 -88 38 -26 -80 89 -81 104 -14 180 29 32 21
27 -24 -17 l-65 -63 -12 64 c-15 81 -15 199 -1 231 9 19 8 34 -7 73 -26 65
-26 184 -1 239 18 38 18 44 3 72 -23 44 -20 99 10 192 l26 82 36 -34 35 -33
-23 31 c-19 27 -20 35 -10 55 26 48 77 106 199 223 39 38 70 73 68 79 -2 6
-92 -77 -201 -184z m-155 -414 c10 -11 18 -25 19 -30 0 -6 -31 -42 -70 -80
-38 -38 -70 -74 -70 -80 0 -6 31 -45 70 -86 38 -41 70 -78 70 -82 0 -12 -103
-117 -115 -117 -6 0 -6 3 0 8 26 17 57 76 57 105 0 38 -15 67 -62 125 -29 37
-36 41 -46 28 -6 -9 -15 -16 -19 -16 -4 0 -2 7 6 16 11 13 10 19 -1 37 -13 22
-12 22 8 4 20 -18 21 -18 60 32 63 79 64 141 4 216 -18 22 62 -49 89 -80z
m-201 -120 c13 -14 21 -25 18 -25 -2 0 -15 11 -28 25 -13 14 -21 25 -18 25 2
0 15 -11 28 -25z m-20 -169 c0 -2 -8 -10 -17 -17 -16 -13 -17 -12 -4 4 13 16
21 21 21 13z m-50 -51 c-6 -8 -8 -20 -4 -27 5 -10 4 -10 -6 -1 -11 10 -11 15
0 28 7 8 15 15 17 15 3 0 0 -7 -7 -15z m154 -157 c21 17 21 17 4 -4 -17 -19
-15 -22 57 -94 41 -41 75 -79 75 -85 0 -6 -26 -35 -57 -65 -32 -30 -43 -39
-26 -20 61 67 56 104 -30 197 l-40 44 -26 -23 -26 -23 20 23 c16 20 17 26 6
45 -13 21 -12 21 5 5 17 -17 19 -17 38 0z m-154 -162 c0 -2 -8 -10 -17 -17
-16 -13 -17 -12 -4 4 13 16 21 21 21 13z m-40 -40 c0 -2 -8 -10 -17 -17 -16
-13 -17 -12 -4 4 13 16 21 21 21 13z m-74 -84 c-21 -20 -35 -30 -30 -22 12 22
58 68 64 64 2 -3 -13 -21 -34 -42z m-58 -42 c9 7 9 7 2 -2 -7 -9 10 -32 62
-85 40 -40 70 -73 68 -73 -3 0 -53 48 -110 107 -58 59 -89 93 -70 75 26 -23
39 -29 48 -22z m332 -35 c12 -19 12 -19 -7 -2 -11 9 -22 15 -24 13 -2 -3 -9 6
-15 19 -12 24 -11 24 11 7 13 -9 29 -26 35 -37z m-350 1 c0 -2 -7 -7 -16 -10
-8 -3 -12 -2 -9 4 6 10 25 14 25 6z m-40 -30 c0 -2 -8 -10 -17 -17 -16 -13
-17 -12 -4 4 13 16 21 21 21 13z m516 -109 c4 -13 -4 -30 -27 -53 -39 -40 -61
-46 -24 -7 32 36 32 64 -3 105 -54 65 -56 72 -4 23 29 -27 55 -58 58 -68z
m-76 -101 c0 -2 -8 -10 -17 -17 -16 -13 -17 -12 -4 4 13 16 21 21 21 13z m-60
-71 c0 -2 -6 -5 -13 -8 -8 -3 -14 1 -14 8 0 7 6 11 14 8 7 -3 13 -6 13 -8z
m140 -160 c0 -6 -27 -37 -61 -70 -75 -74 -85 -91 -67 -113 10 -13 8 -13 -9 1
-21 18 -22 18 -35 -2 -7 -12 -17 -21 -22 -21 -5 0 -1 9 10 21 16 17 16 23 5
42 -13 21 -13 21 6 5 18 -17 21 -16 55 20 19 20 47 54 62 74 34 45 30 63 -27
127 -32 36 -27 33 21 -14 34 -33 62 -64 62 -70z m-290 10 c-7 -8 -17 -15 -22
-15 -6 0 -5 7 2 15 7 8 17 15 22 15 6 0 5 -7 -2 -15z m-49 -42 c-12 -23 -61
-69 -61 -58 0 7 61 75 68 75 1 0 -2 -8 -7 -17z m129 -197 c0 -3 -4 -8 -10 -11
-5 -3 -10 -1 -10 4 0 6 5 11 10 11 6 0 10 -2 10 -4z m-64 -128 c24 -27 25 -29
4 -13 -14 11 -28 24 -31 29 -4 5 -12 5 -19 1 -9 -5 -11 -4 -6 3 11 18 20 15
52 -20z m59 -58 c3 -5 1 -10 -4 -10 -6 0 -11 5 -11 10 0 6 2 10 4 10 3 0 8 -4
11 -10z"/>
<path d="M634 3708 l-19 -23 23 19 c21 18 27 26 19 26 -2 0 -12 -10 -23 -22z"/>
<path d="M707 3562 c-10 -53 -20 -108 -23 -121 -4 -20 0 -18 31 15 19 22 48
58 65 80 l29 42 -27 28 c-58 60 -56 62 -75 -44z"/>
<path d="M2410 3578 c0 -16 -21 -53 -56 -98 -30 -40 -54 -73 -52 -75 2 -2 36
33 77 77 l74 80 -22 21 -21 21 0 -26z"/>
<path d="M1140 3545 c-11 -13 -10 -14 4 -9 11 4 28 -3 49 -22 31 -28 31 -28
-2 9 -19 20 -36 37 -37 37 -1 0 -7 -7 -14 -15z"/>
<path d="M786 3502 c-49 -60 -60 -84 -52 -115 11 -44 38 -69 68 -62 24 6 26
10 17 32 -5 13 -9 37 -9 54 0 33 30 109 44 109 4 0 3 7 -4 15 -18 22 -21 20
-64 -33z"/>
<path d="M602 3455 c9 -11 24 -34 32 -50 13 -25 16 -26 16 -9 0 11 -15 33 -32
50 -18 16 -25 20 -16 9z"/>
<path d="M2965 3420 c-10 -11 -16 -22 -14 -24 2 -2 12 7 22 20 22 29 17 32 -8
4z"/>
<path d="M2270 3405 c0 -10 -7 -27 -17 -37 -9 -10 -14 -20 -11 -23 2 -3 15 9
27 26 17 23 20 34 12 42 -8 8 -11 6 -11 -8z"/>
<path d="M1599 3362 c-30 -32 -30 -34 -4 -11 17 15 37 28 45 31 8 3 10 7 4 11
-6 3 -26 -10 -45 -31z"/>
<path d="M670 3389 c0 -4 11 -31 25 -62 20 -46 27 -54 44 -50 21 5 21 5 1 32
-32 44 -69 86 -70 80z"/>
<path d="M2181 3288 c-22 -24 -41 -47 -41 -51 0 -5 28 -39 61 -75 34 -37 65
-76 68 -86 4 -11 10 -15 14 -10 3 6 -23 43 -59 82 -35 40 -64 79 -64 86 0 7
16 31 36 54 46 54 37 54 -15 0z"/>
<path d="M1722 3285 c-1 -12 -16 -53 -33 -91 -17 -38 -35 -80 -40 -93 l-10
-24 -27 24 c-15 13 -21 17 -14 9 20 -23 14 -44 -24 -88 -19 -23 -33 -42 -31
-42 3 0 62 57 131 126 l126 125 -22 28 c-36 45 -53 53 -56 26z"/>
<path d="M880 3280 c-6 -11 -8 -20 -6 -20 3 0 10 9 16 20 6 11 8 20 6 20 -3 0
-10 -9 -16 -20z"/>
<path d="M815 3220 c-3 -5 -1 -10 4 -10 6 0 11 5 11 10 0 6 -2 10 -4 10 -3 0
-8 -4 -11 -10z"/>
<path d="M2954 3079 c-3 -6 6 -23 21 -38 l28 -26 -21 31 c-12 17 -19 34 -15
38 3 3 4 6 0 6 -3 0 -9 -5 -13 -11z"/>
<path d="M2249 3033 c-13 -16 -12 -17 4 -4 9 7 17 15 17 17 0 8 -8 3 -21 -13z"/>
<path d="M2859 2985 c-35 -36 -65 -69 -67 -73 -1 -4 31 -40 72 -81 l74 -73
-20 58 c-27 78 -29 171 -5 207 9 15 16 27 14 27 -3 0 -33 -29 -68 -65z"/>
<path d="M2162 2940 c-29 -28 -28 -37 13 -76 45 -45 55 -43 16 1 -36 41 -36
43 -15 73 19 27 14 28 -14 2z"/>
<path d="M2980 2785 l-34 -35 44 -43 c43 -41 43 -41 12 -4 -18 21 -32 42 -32
47 0 4 12 22 26 39 35 42 26 39 -16 -4z"/>
<path d="M1070 2513 l-65 -68 68 65 c37 35 67 66 67 67 0 8 -10 -2 -70 -64z"/>
<path d="M2983 2459 c-18 -16 -33 -34 -33 -38 0 -4 12 -18 26 -32 25 -23 26
-23 15 -2 -16 32 -14 54 11 80 31 33 19 28 -19 -8z"/>
<path d="M1173 2462 c-43 -23 -105 -82 -100 -95 2 -6 15 -19 29 -30 l25 -19
72 39 c40 21 81 42 91 48 27 13 25 18 -14 49 -40 30 -59 32 -103 8z"/>
<path d="M2305 2440 c-9 -14 4 -50 17 -50 6 0 6 6 -2 15 -7 8 -10 22 -6 30 6
17 0 20 -9 5z"/>
<path d="M959 2403 c-13 -16 -12 -17 4 -4 9 7 17 15 17 17 0 8 -8 3 -21 -13z"/>
<path d="M1247 2342 c-70 -71 -90 -103 -34 -56 72 61 132 66 197 15 19 -15 42
-31 50 -36 13 -8 13 -7 0 10 -20 25 -133 135 -140 135 -3 0 -36 -30 -73 -68z"/>
<path d="M2860 2339 c-36 -39 -64 -76 -64 -84 1 -7 -4 -11 -10 -9 -16 6 -160
-141 -152 -155 4 -6 2 -9 -6 -6 -12 5 -118 -102 -142 -143 -4 -7 2 -26 15 -45
l22 -32 -27 28 c-32 33 -37 33 -55 5 -45 -71 -73 -141 -69 -174 l4 -34 -40 37
c-23 21 -35 31 -28 23 20 -24 14 -56 -30 -147 -24 -49 -44 -90 -45 -92 -1 -2
-9 4 -18 13 -21 21 -23 20 -18 -6 6 -33 -113 -184 -132 -168 -11 9 -12 7 -9
-7 4 -13 -25 -48 -103 -123 -60 -58 -118 -112 -128 -120 -53 -41 -87 -62 -92
-57 -3 3 20 42 51 86 31 45 56 88 56 96 0 13 4 14 20 5 17 -9 20 -8 20 7 0 10
16 43 36 73 57 87 67 111 54 124 -8 8 -20 1 -47 -29 -20 -22 -51 -57 -70 -77
-18 -20 -33 -43 -33 -49 0 -7 -3 -9 -6 -6 -4 4 -32 -21 -63 -56 -149 -165
-281 -299 -514 -523 -86 -83 -157 -154 -157 -157 0 -13 25 -6 50 13 29 22 69
26 90 8 8 -7 -1 4 -20 26 -30 33 -32 37 -13 32 15 -5 49 5 103 28 87 39 109
42 143 25 12 -6 0 12 -28 42 -27 29 -41 46 -29 36 24 -20 69 -22 104 -4 14 7
53 24 87 37 l63 25 -43 44 c-34 36 -36 40 -9 18 54 -44 79 -36 181 56 37 33
41 40 29 55 -11 15 -11 15 3 5 14 -11 30 1 114 80 175 166 205 197 205 212 0
8 7 15 15 15 9 0 19 8 22 18 4 9 107 117 230 239 123 123 223 227 223 233 0 5
5 10 11 10 11 0 48 37 107 108 32 39 34 46 22 65 -13 22 -13 22 8 4 20 -19 42
-16 42 5 0 5 8 22 19 36 26 38 53 126 45 148 -4 10 -16 33 -27 49 -16 25 -13
23 20 -10 21 -22 47 -46 56 -54 16 -13 17 -12 7 14 -12 32 3 193 20 226 28 51
3 36 -70 -42z m-1136 -1331 c-14 -4 -35 -15 -47 -25 -18 -16 -18 -14 3 14 15
20 21 39 17 54 -5 20 -3 19 24 -7 l30 -29 -27 -7z"/>
<path d="M2351 2354 c44 -49 62 -82 55 -107 -3 -13 -28 -49 -56 -81 -27 -31
-50 -63 -50 -70 0 -7 10 -21 23 -32 22 -19 22 -19 5 2 -10 11 -18 26 -18 32 0
7 32 46 71 87 l72 75 -49 53 c-26 28 -55 56 -64 61 -8 5 -3 -4 11 -20z"/>
<path d="M1025 2330 c-10 -11 -16 -22 -14 -23 2 -2 17 -13 33 -25 22 -17 32
-19 47 -11 11 5 24 7 30 3 24 -15 -12 36 -40 55 -35 26 -34 26 -56 1z"/>
<path d="M2180 2308 c-22 -24 -40 -45 -40 -48 0 -3 26 -33 57 -65 56 -60 56
-60 23 -13 -39 56 -43 96 -11 138 31 43 16 37 -29 -12z"/>
<path d="M1134 2229 c-19 -22 -19 -22 4 -10 13 7 31 10 39 7 13 -5 14 -4 3 9
-17 20 -23 19 -46 -6z"/>
<path d="M2990 2145 c-24 -24 -42 -47 -39 -49 3 -3 24 17 47 44 54 62 50 64
-8 5z"/>
<path d="M2276 2093 c-6 -14 -5 -15 5 -6 7 7 10 15 7 18 -3 3 -9 -2 -12 -12z"/>
<path d="M2783 1934 c-84 -84 -153 -157 -153 -163 0 -6 -3 -10 -7 -9 -5 2 -71
-62 -148 -141 -77 -79 -169 -174 -204 -210 -36 -36 -61 -60 -56 -52 5 10 4 12
-4 7 -6 -4 -9 -11 -7 -15 7 -11 -69 -83 -78 -74 -4 5 -6 3 -4 -4 2 -7 -136
-150 -307 -319 -170 -169 -292 -291 -270 -272 81 70 113 81 149 51 12 -10 6
-2 -11 17 l-32 35 98 28 c112 31 139 33 167 12 46 -35 34 -10 -26 52 -36 37
-50 54 -32 38 29 -26 40 -30 90 -29 56 1 109 21 157 60 20 15 19 17 -32 63
-29 26 -53 51 -53 56 0 4 22 -13 50 -39 27 -25 53 -46 59 -46 8 0 85 66 143
122 16 16 16 18 -9 38 -30 24 -72 25 -138 5 l-49 -14 49 44 c28 25 55 45 60
45 6 0 31 -20 55 -45 24 -25 47 -45 50 -45 9 0 161 142 157 146 -1 2 -29 -10
-60 -26 -70 -35 -138 -47 -175 -30 l-27 12 35 30 c100 88 131 119 125 128 -3
6 1 10 9 10 22 0 158 139 150 152 -4 7 -2 8 4 4 13 -8 29 6 101 88 29 33 49
66 46 74 -3 9 1 12 13 8 13 -4 30 13 70 72 28 43 52 88 52 102 l0 23 24 -22
c24 -22 25 -23 19 -3 -6 26 27 84 98 170 6 7 9 15 8 16 -2 2 -73 -65 -156
-150z"/>
<path d="M2201 2008 c-33 -35 -61 -68 -61 -73 0 -6 19 -29 42 -50 31 -30 36
-33 20 -11 -34 44 -28 78 23 141 25 30 43 55 41 55 -2 0 -31 -28 -65 -62z"/>
<path d="M1239 2029 l-24 -20 28 17 c15 9 27 18 27 20 0 8 -8 4 -31 -17z"/>
<path d="M1429 1991 c25 -23 49 -41 56 -41 6 0 29 19 50 42 32 33 35 38 13 25
-34 -21 -89 -22 -131 -1 -30 14 -29 12 12 -25z"/>
<path d="M1179 1973 l-24 -28 28 24 c25 23 32 31 24 31 -2 0 -14 -12 -28 -27z"/>
<path d="M1339 1950 c-14 -4 -47 -20 -73 -35 l-47 -28 28 -29 c24 -26 33 -29
65 -24 49 8 107 39 141 74 l28 29 -39 11 c-44 13 -65 14 -103 2z"/>
<path d="M1129 1923 c-13 -16 -12 -17 4 -4 16 13 21 21 13 21 -2 0 -10 -8 -17
-17z"/>
<path d="M1177 1842 c-16 -17 -15 -20 11 -45 24 -23 33 -26 53 -19 14 6 35 6
49 1 19 -7 14 2 -23 36 -54 50 -66 53 -90 27z"/>
<path d="M2250 1807 c27 -31 31 -24 -67 -135 -38 -42 -49 -62 -42 -73 7 -11 9
-11 9 -1 0 8 32 50 72 93 l72 80 -34 32 c-26 25 -29 26 -10 4z"/>
<path d="M1289 1733 l-24 -26 25 16 c32 22 33 22 72 -10 l33 -27 -34 37 c-19
20 -38 37 -41 37 -4 0 -17 -12 -31 -27z"/>
<path d="M2048 1536 c-38 -40 -68 -79 -68 -87 0 -9 12 -26 28 -40 15 -13 21
-17 15 -9 -22 24 -15 42 47 122 33 42 60 79 60 82 0 15 -20 -2 -82 -68z"/>
<path d="M2759 1583 c-13 -16 -12 -17 4 -4 9 7 17 15 17 17 0 8 -8 3 -21 -13z"/>
<path d="M2637 1470 c-9 -11 -13 -20 -7 -20 5 0 14 9 20 20 6 11 9 20 8 20 -2
0 -11 -9 -21 -20z"/>
<path d="M2575 1408 c-67 -66 -115 -100 -131 -94 -14 5 -15 4 -4 -9 8 -10 17
-12 30 -5 23 12 145 129 139 134 -2 2 -17 -10 -34 -26z"/>
<path d="M2725 1341 c48 -52 58 -54 91 -19 l29 31 -32 -23 -33 -24 -42 34 -43
33 30 -32z"/>
<path d="M3065 1330 c9 -24 40 -40 56 -28 12 8 12 9 -1 5 -8 -2 -25 5 -38 17
-15 13 -21 15 -17 6z"/>
<path d="M2160 1319 c0 -5 5 -7 10 -4 6 3 10 8 10 11 0 2 -4 4 -10 4 -5 0 -10
-5 -10 -11z"/>
<path d="M2739 1270 c-46 -13 -193 -21 -226 -11 -29 8 -31 8 -21 -7 7 -9 38
-42 70 -71 l59 -55 77 77 c42 42 75 77 72 76 -3 0 -17 -4 -31 -9z"/>
<path d="M2960 1111 c96 -95 239 -236 317 -313 l142 -141 80 74 80 74 -72 67
c-40 37 -76 68 -81 68 -6 0 -21 -10 -35 -22 -24 -22 -24 -21 1 8 l28 30 -43
40 c-56 53 -106 94 -117 94 -5 0 -23 -12 -42 -27 -30 -24 -29 -23 7 15 21 23
34 42 27 42 -6 0 -34 14 -61 30 -30 19 -70 33 -101 37 -43 5 -56 2 -82 -17
-40 -29 -26 -6 24 39 21 19 38 40 38 45 0 6 -5 5 -12 -2 -22 -22 -161 -9 -253
24 -11 4 59 -71 155 -165z m400 -225 c0 -2 -8 -10 -17 -17 -16 -13 -17 -12 -4
4 13 16 21 21 21 13z m-40 -40 c0 -2 -8 -10 -17 -17 -16 -13 -17 -12 -4 4 13
16 21 21 21 13z"/>
<path d="M3192 1204 l78 -79 27 29 c16 15 21 26 13 23 -22 -7 -77 18 -140 65
-55 41 -55 40 22 -38z"/>
<path d="M2700 1186 c-85 -62 -85 -59 4 -143 77 -74 78 -75 99 -56 l22 18 -18
-22 c-18 -21 -18 -22 28 -64 72 -66 108 -90 128 -85 18 4 18 4 1 -15 -9 -10
-13 -19 -7 -19 5 0 50 -22 99 -50 60 -33 95 -48 109 -44 17 5 16 2 -8 -23
l-27 -30 27 4 c20 3 48 -9 98 -41 69 -44 69 -44 95 -26 14 10 34 27 44 39 19
21 18 21 -50 91 -39 40 -74 68 -82 65 -7 -3 -10 0 -6 6 9 15 -304 315 -325
311 -11 -2 -12 0 -4 6 27 18 -102 112 -153 112 -17 0 -48 -15 -74 -34z"/>
<path d="M2410 1192 c-42 -20 -110 -62 -110 -68 0 -5 67 -71 113 -112 33 -28
41 -31 60 -21 21 12 21 11 5 -8 -17 -19 -17 -20 10 -40 45 -33 85 -51 133 -58
51 -8 75 1 124 44 17 14 -4 -10 -45 -53 -42 -45 -61 -70 -43 -58 40 28 73 28
163 -3 40 -14 83 -25 94 -25 18 0 17 -3 -9 -30 -26 -28 -24 -45 3 -18 9 9 18
9 39 -1 40 -18 153 -113 147 -122 -3 -5 0 -9 6 -9 7 0 40 -27 74 -60 35 -33
65 -60 67 -60 3 0 -136 141 -308 312 l-313 312 -53 -52 c-29 -28 -56 -52 -60
-52 -4 0 18 24 50 54 l58 55 -33 31 c-67 61 -110 72 -172 42z"/>
<path d="M3886 1172 c-7 -12 22 -38 31 -28 4 3 0 14 -9 22 -9 10 -18 12 -22 6z"/>
<path d="M3560 1156 c0 -2 8 -10 18 -17 15 -13 16 -12 3 4 -13 16 -21 21 -21
13z"/>
<path d="M3280 1122 c0 -4 33 -41 74 -81 l74 -73 24 18 c13 10 33 29 43 43 10
14 15 23 10 19 -4 -4 -46 13 -93 37 -79 41 -132 56 -132 37z"/>
<path d="M3784 1069 c-33 -30 -62 -48 -70 -45 -11 4 -12 2 -5 -13 14 -26 40
-34 59 -19 50 42 102 103 98 114 -9 23 -23 16 -82 -37z"/>
<path d="M3940 1111 c0 -13 29 -35 37 -28 7 8 -15 37 -28 37 -5 0 -9 -4 -9 -9z"/>
<path d="M3645 1070 c21 -22 41 -40 44 -40 3 0 -13 18 -34 40 -21 22 -41 40
-44 40 -3 0 13 -18 34 -40z"/>
<path d="M2208 1031 l-73 -69 25 -20 c59 -48 177 -53 249 -11 l36 21 -20 -23
c-11 -13 -39 -43 -62 -66 -53 -52 -55 -63 -6 -26 59 45 143 37 233 -23 14 -9
-44 51 -129 135 -85 83 -160 151 -167 151 -6 0 -45 -31 -86 -69z"/>
<path d="M3838 1015 c-31 -30 -61 -55 -68 -55 -7 0 -2 -9 11 -19 l24 -19 50
42 c27 22 58 48 67 55 16 14 16 16 1 33 -9 10 -19 18 -23 18 -3 0 -31 -25 -62
-55z"/>
<path d="M3465 986 l-30 -25 70 -70 c38 -39 73 -71 78 -71 5 0 43 32 83 72 57
55 71 74 63 85 -16 19 -31 16 -58 -12 -13 -14 -27 -25 -31 -25 -4 0 -34 16
-66 35 -32 19 -63 35 -68 35 -6 0 -24 -11 -41 -24z"/>
<path d="M2050 874 c-75 -76 -75 -76 -26 -45 50 31 119 48 154 37 11 -4 38
-18 59 -32 30 -20 23 -11 -32 45 -38 39 -72 71 -75 71 -3 0 -39 -34 -80 -76z"/>
<path d="M3734 910 c-16 -16 -33 -30 -39 -30 -17 -1 -96 -81 -90 -91 4 -5 -1
-9 -10 -9 -22 0 -159 -136 -150 -149 14 -23 34 -11 132 79 30 27 51 50 48 50
-3 0 32 30 77 67 46 36 86 69 91 73 4 3 -1 14 -11 23 -18 16 -20 15 -48 -13z"/>
<path d="M1934 758 c-23 -27 -24 -29 -3 -10 14 12 33 22 43 22 9 0 14 5 11 10
-10 16 -20 12 -51 -22z"/>
<path d="M2275 781 c-3 -6 3 -9 14 -8 11 0 17 5 15 9 -7 11 -22 10 -29 -1z"/>
<path d="M2601 776 c-10 -12 -8 -13 9 -9 16 4 33 -5 63 -33 l42 -39 -45 48
c-49 52 -52 53 -69 33z"/>
<path d="M1047 641 c-36 -28 -37 -29 -20 -50 l18 -22 40 30 c22 17 46 31 54
31 11 0 10 5 -4 20 -24 27 -43 25 -88 -9z"/>
<path d="M1476 622 c-3 -5 1 -9 9 -9 8 0 12 4 9 9 -3 4 -7 8 -9 8 -2 0 -6 -4
-9 -8z"/>
<path d="M3370 575 c-43 -44 -44 -45 -18 -45 16 0 40 12 60 30 18 17 39 30 46
30 12 0 12 3 2 15 -21 25 -44 17 -90 -30z"/>
<path d="M955 500 c10 -11 20 -20 23 -20 3 0 -3 9 -13 20 -10 11 -20 20 -23
20 -3 0 3 -9 13 -20z"/>
<path d="M1000 450 c0 -5 5 -10 11 -10 5 0 7 5 4 10 -3 6 -8 10 -11 10 -2 0
-4 -4 -4 -10z"/>
<path d="M3275 450 c3 -5 8 -10 11 -10 2 0 4 5 4 10 0 6 -5 10 -11 10 -5 0 -7
-4 -4 -10z"/>
</g>
</svg>
