<?xml version="1.0" standalone="no"?>
<!DOCTYPE svg PUBLIC "-//W3C//DTD SVG 20010904//EN"
 "http://www.w3.org/TR/2001/REC-SVG-20010904/DTD/svg10.dtd">
<svg version="1.0" xmlns="http://www.w3.org/2000/svg"
 width="512.000000pt" height="512.000000pt" viewBox="0 0 512.000000 512.000000"
 preserveAspectRatio="xMidYMid meet">
<metadata>
Created by potrace 1.14, written by Peter Selinger 2001-2017
</metadata>
<g transform="translate(0.000000,512.000000) scale(0.100000,-0.100000)"
fill="#000000" stroke="none">
<path d="M3577 4571 c50 -49 73 -62 73 -41 0 6 -6 10 -14 10 -7 0 -35 19 -62
41 l-49 42 52 -52z"/>
<path d="M1147 4564 c-27 -26 -46 -48 -44 -50 2 -2 25 19 52 46 62 63 56 65
-8 4z"/>
<path d="M1782 4555 c26 -27 49 -47 52 -45 2 3 -19 25 -48 49 l-51 44 47 -48z"/>
<path d="M2850 4575 c13 -14 26 -25 28 -25 3 0 -5 11 -18 25 -13 14 -26 25
-28 25 -3 0 5 -11 18 -25z"/>
<path d="M1424 4552 l39 -41 28 22 c16 11 29 25 29 30 0 6 -8 3 -18 -6 -25
-23 -39 -21 -81 10 l-36 26 39 -41z"/>
<path d="M3301 4549 c-13 -11 -31 -17 -39 -14 -12 5 -13 3 -2 -10 12 -14 16
-13 42 11 25 25 33 35 26 34 -2 -1 -14 -10 -27 -21z"/>
<path d="M2565 4535 c-16 -14 -25 -25 -19 -25 6 0 21 11 34 25 30 32 24 31
-15 0z"/>
<path d="M945 4368 c-76 -73 -151 -151 -168 -173 -16 -22 47 36 141 130 95 93
172 171 172 172 0 9 -23 -11 -145 -129z"/>
<path d="M1438 4495 c-11 -12 -238 -54 -255 -48 -10 3 7 -20 37 -51 30 -31 59
-56 65 -56 6 0 46 36 90 80 44 44 77 80 74 80 -3 0 -8 -2 -11 -5z"/>
<path d="M1560 4416 l85 -86 75 71 c50 48 64 64 40 50 -19 -11 -47 -21 -62
-21 -22 0 -103 26 -203 65 -11 4 18 -31 65 -79z"/>
<path d="M1922 4415 l88 -90 42 44 c37 38 39 41 11 22 -45 -31 -65 -27 -125
27 -99 87 -103 87 -16 -3z"/>
<path d="M3180 4444 c-41 -30 -87 -58 -103 -61 l-28 -6 23 -25 23 -24 -23 7
c-26 7 -90 -29 -154 -88 -42 -39 -47 -56 -20 -80 17 -15 28 -6 192 158 96 96
173 175 170 175 -3 -1 -39 -26 -80 -56z"/>
<path d="M3679 4472 c19 -15 48 -36 65 -47 l31 -20 -28 37 c-16 20 -42 41 -59
47 -45 16 -47 14 -9 -17z"/>
<path d="M2463 4437 c-84 -78 -93 -81 -134 -52 -47 35 -51 30 -6 -9 20 -18 37
-35 37 -38 0 -3 -22 -15 -49 -27 -64 -27 -149 -27 -226 -1 -32 11 -60 20 -62
20 -16 0 10 -30 85 -98 l88 -81 169 170 c166 165 213 222 98 116z"/>
<path d="M3361 4425 c79 -81 86 -81 175 -4 63 55 80 78 48 64 -70 -29 -221
-34 -262 -8 -15 9 3 -14 39 -52z"/>
<path d="M2680 4455 c-15 -18 -41 -19 -60 -3 -8 7 5 -9 30 -37 25 -27 46 -51
47 -53 1 -2 16 6 32 18 l31 21 -26 35 c-30 38 -36 41 -54 19z"/>
<path d="M1415 4421 c-11 -5 -43 -29 -70 -55 l-50 -46 85 -80 c47 -43 88 -78
92 -77 4 1 43 37 87 80 l80 79 -31 26 c-88 75 -139 94 -193 73z"/>
<path d="M3564 4404 c-56 -38 -103 -81 -97 -88 11 -10 44 -7 112 13 36 11 83
22 104 26 l37 6 -26 34 c-33 44 -74 47 -130 9z"/>
<path d="M3267 4400 c-15 -5 -57 -25 -92 -46 l-65 -38 52 -55 53 -55 -49 42
c-27 23 -54 42 -61 42 -15 0 -165 -139 -165 -153 0 -6 17 -29 38 -52 l37 -40
-40 38 c-23 20 -45 37 -51 37 -22 0 -144 -143 -144 -169 0 -10 19 -40 42 -67
41 -49 41 -49 -18 8 l-59 57 -29 -71 c-42 -102 -46 -165 -12 -223 28 -47 40
-54 53 -31 4 8 77 85 162 171 117 119 152 161 148 176 -3 10 -1 19 4 19 5 0 9
-4 9 -10 0 -24 19 -5 69 70 70 102 87 121 108 113 10 -4 14 -2 10 4 -13 21 5
43 82 101 42 31 78 62 80 67 6 14 -87 75 -113 74 -11 0 -33 -4 -49 -9z"/>
<path d="M1116 4375 c-58 -31 -126 -84 -126 -100 0 -17 93 -105 111 -105 9 0
53 35 98 78 l82 77 -38 31 c-56 45 -73 48 -127 19z"/>
<path d="M2536 4356 c-54 -28 -91 -40 -116 -40 l-38 1 62 -60 c55 -54 55 -62
-1 -13 -43 37 -106 18 -197 -57 l-49 -41 34 -31 c42 -37 75 -75 65 -75 -4 0
-29 21 -57 47 l-50 46 -32 -29 -32 -29 29 32 30 33 -25 26 c-37 40 -139 104
-164 104 -22 0 -155 -104 -155 -122 0 -9 82 -86 119 -111 30 -20 61 -16 103
14 40 29 35 16 -12 -31 -23 -23 -38 -45 -35 -50 3 -5 48 7 101 26 52 18 98 34
101 34 3 0 -12 -20 -34 -43 -22 -24 -48 -56 -58 -71 -17 -26 -17 -29 -1 -59
l17 -32 -27 31 -27 32 -42 -62 c-23 -33 -52 -81 -64 -104 l-22 -44 23 -34 c13
-19 26 -34 29 -34 12 0 159 160 159 173 0 7 -6 19 -12 27 -7 8 -3 6 10 -4 12
-11 24 -17 26 -15 2 2 36 42 76 89 48 58 70 91 66 103 -4 18 -4 18 15 1 13
-12 19 -13 19 -4 0 7 17 35 38 63 38 53 112 141 112 134 0 -2 38 35 85 82 l85
85 -27 28 c-15 15 -32 27 -37 26 -6 0 -47 -19 -90 -42z"/>
<path d="M1688 4351 l-33 -30 40 -41 c22 -23 61 -60 87 -82 l48 -40 85 79 86
78 -43 7 c-24 3 -78 18 -120 32 -97 33 -110 33 -150 -3z"/>
<path d="M2767 4345 c-28 -25 -33 -35 -18 -35 16 0 65 46 55 52 -5 4 -21 -4
-37 -17z"/>
<path d="M1200 4229 c-71 -67 -83 -82 -74 -97 13 -21 85 -40 181 -49 70 -6 72
-5 113 27 l42 33 -64 64 c-35 36 -74 73 -88 83 l-25 18 -85 -79z"/>
<path d="M3104 3965 c-189 -190 -344 -353 -344 -362 0 -15 156 -182 162 -173
2 3 36 39 76 81 39 42 72 82 72 89 0 6 -22 35 -48 63 -77 84 -80 98 -4 20 39
-40 73 -73 76 -73 3 0 17 20 32 45 24 43 26 52 22 139 -3 66 -9 101 -21 120
-33 49 0 26 68 -49 38 -41 71 -73 73 -70 3 2 -9 19 -25 38 -50 57 -59 90 -40
151 9 29 33 71 53 95 l37 42 25 -23 26 -23 -18 29 -18 28 44 45 c59 61 102 86
138 81 29 -4 29 -4 13 15 -46 50 -30 62 -399 -308z"/>
<path d="M1552 4224 l-82 -76 72 -59 c108 -88 124 -87 227 4 25 23 10 4 -34
-41 l-80 -82 70 -2 c39 -1 114 -1 168 1 53 2 97 -1 97 -5 0 -5 -37 -46 -82
-93 -92 -93 -87 -96 15 -9 65 56 107 72 122 48 3 -5 12 -10 18 -10 7 1 1 10
-13 21 -14 12 -107 102 -207 200 -100 98 -188 179 -195 179 -7 0 -50 -34 -96
-76z"/>
<path d="M2574 4158 c-197 -191 -194 -188 -194 -196 0 -4 25 -32 57 -62 51
-50 53 -51 23 -13 -23 30 -31 48 -27 65 8 31 104 142 216 251 50 49 91 90 91
93 0 16 -36 -14 -166 -138z"/>
<path d="M3780 4279 c0 -5 5 -7 10 -4 6 3 10 8 10 11 0 2 -4 4 -10 4 -5 0 -10
-5 -10 -11z"/>
<path d="M953 4245 c-32 -23 -103 -134 -103 -162 0 -14 14 -42 30 -64 l31 -38
37 41 c20 23 63 60 94 83 l56 42 -46 45 c-72 68 -75 70 -99 53z"/>
<path d="M2820 4148 c-58 -78 -90 -134 -90 -157 l0 -24 -27 24 c-21 19 -25 20
-20 6 9 -24 -9 -57 -72 -136 -28 -35 -51 -67 -51 -72 0 -4 35 29 77 74 42 45
121 127 174 182 92 93 97 101 82 117 -24 26 -46 22 -73 -14z"/>
<path d="M701 4117 l-25 -32 32 29 c33 31 37 36 25 35 -5 0 -19 -14 -32 -32z"/>
<path d="M1014 4044 l-77 -85 33 -32 c19 -18 28 -24 21 -15 -19 25 -5 54 46
93 77 58 112 57 198 -8 25 -19 10 0 -40 51 -44 45 -85 82 -91 82 -7 0 -47 -39
-90 -86z"/>
<path d="M1375 4048 c-44 -45 -69 -73 -55 -61 31 27 77 45 99 39 9 -3 63 -19
120 -36 l103 -32 -38 -41 c-30 -31 -32 -35 -10 -19 40 31 66 28 117 -15 24
-20 -19 27 -96 105 -77 78 -144 142 -150 142 -6 0 -46 -37 -90 -82z"/>
<path d="M786 3968 c-10 -62 -22 -123 -27 -135 -17 -43 8 -23 76 63 l68 86
-50 49 -49 50 -18 -113z"/>
<path d="M1259 3933 c-17 -20 -18 -23 -3 -10 28 23 33 22 76 -20 21 -20 38
-35 38 -32 0 3 -19 24 -43 47 l-43 42 -25 -27z"/>
<path d="M889 3913 c-72 -76 -86 -122 -53 -184 13 -25 20 -30 47 -27 26 2 31
7 29 23 -9 61 -5 115 12 153 10 23 23 42 29 42 5 0 4 7 -3 15 -18 21 -22 20
-61 -22z"/>
<path d="M2338 3927 c-89 -91 -304 -320 -306 -327 -2 -5 33 -46 77 -92 l80
-83 30 35 c90 103 92 181 8 280 -12 14 13 -9 56 -50 42 -41 77 -80 77 -86 0
-6 -36 -50 -81 -98 l-81 -86 77 -85 c90 -99 112 -112 78 -44 -12 22 -19 64
-21 123 -4 76 -1 96 19 138 22 47 22 50 6 83 -24 50 -21 121 8 215 32 100 23
127 -27 77z"/>
<path d="M679 3831 c17 -24 31 -51 31 -60 1 -13 3 -13 11 3 10 15 5 25 -31 60
l-42 41 31 -44z"/>
<path d="M3300 3805 l-24 -26 38 -37 39 -37 -27 36 c-31 42 -31 47 -9 71 25
28 10 21 -17 -7z"/>
<path d="M2526 3793 c5 -16 -12 -40 -70 -101 -42 -43 -76 -83 -76 -88 0 -5 34
-47 75 -92 41 -45 75 -87 75 -93 0 -6 -34 -48 -75 -94 -41 -45 -75 -86 -75
-90 0 -5 37 -46 81 -92 l81 -83 -83 -91 -84 -92 -7 39 c-4 21 -12 82 -18 135
-9 80 -8 104 4 139 l15 43 -86 -84 c-80 -78 -83 -80 -40 -26 26 32 49 73 53
92 7 41 -19 100 -72 160 l-35 40 -86 -88 -87 -88 130 -132 c71 -73 151 -155
177 -182 l47 -51 -87 -84 c-49 -47 -69 -65 -47 -40 60 66 84 101 84 120 0 21
-42 83 -94 141 l-39 42 -105 -109 c-203 -212 -225 -234 -236 -234 -6 0 65 75
157 168 92 92 167 173 167 180 0 15 -150 174 -161 170 -4 -2 -35 -34 -68 -72
-71 -81 -75 -102 -29 -167 l31 -44 -57 55 -57 55 3 -113 3 -113 -40 7 c-22 4
-57 13 -79 20 -56 20 -61 18 -30 -18 15 -18 30 -32 34 -31 3 1 69 -62 146
-140 76 -78 100 -105 53 -59 -76 74 -87 81 -99 67 -7 -9 -27 -25 -44 -37 -28
-19 -27 -17 9 20 l39 42 -39 40 c-21 21 -42 37 -46 34 -4 -2 -24 5 -44 17 -32
19 -41 20 -73 11 -20 -6 -61 -32 -90 -58 -65 -57 -64 -59 69 -114 51 -21 95
-44 97 -50 2 -6 -4 -20 -13 -30 -17 -19 -16 -19 13 -8 28 11 35 9 69 -18 21
-17 51 -51 66 -76 25 -40 27 -48 16 -72 -7 -15 -18 -25 -25 -24 -6 2 -87 76
-179 166 -93 89 -171 162 -174 162 -4 0 -42 -37 -86 -81 -82 -83 -82 -86 -6
-34 35 24 55 30 96 30 45 0 59 -5 109 -43 57 -43 57 -44 39 -64 -18 -21 -18
-21 4 -7 21 13 26 10 79 -41 81 -80 97 -105 84 -130 -6 -11 -29 -34 -52 -50
-33 -24 -51 -30 -92 -30 -29 0 -59 7 -70 15 -41 31 -37 13 5 -25 70 -63 71
-62 161 26 89 89 87 89 129 -1 18 -39 26 -105 12 -105 -4 0 -35 10 -69 21 -61
21 -110 21 -142 1 -8 -6 41 -62 165 -186 l178 -177 78 82 c42 46 77 88 77 93
0 6 -35 47 -77 91 l-78 80 86 -84 87 -83 37 40 c117 131 119 142 33 238 -60
67 -59 66 25 -16 l87 -85 -63 -65 c-34 -35 -111 -116 -172 -178 -60 -62 -111
-114 -112 -116 -2 -1 33 -41 77 -89 44 -48 80 -90 80 -92 0 -3 -36 -47 -79
-97 l-80 -91 32 -40 c30 -37 32 -38 35 -16 2 12 28 61 58 108 56 89 60 100 44
131 -7 14 2 40 41 116 58 113 58 127 1 196 -21 26 -5 14 42 -32 43 -41 73 -65
67 -53 -16 31 -13 78 9 163 11 41 20 92 20 113 0 23 4 36 10 32 5 -3 42 -42
80 -86 66 -75 70 -81 56 -101 -8 -11 -81 -90 -163 -175 -81 -86 -149 -161
-151 -167 -1 -7 14 -30 33 -51 20 -22 29 -29 21 -15 -24 37 -20 52 32 120 26
35 56 76 68 91 16 23 23 26 34 16 9 -9 11 -9 6 0 -7 12 78 112 242 283 l90 95
-79 82 c-43 45 -79 88 -79 94 0 6 36 51 80 99 l80 87 -81 87 c-57 60 -79 91
-75 103 5 13 4 14 -8 4 -11 -10 -26 3 -80 65 -85 100 -85 111 -4 200 34 38 66
69 70 69 10 0 96 -103 114 -136 20 -39 11 -66 -43 -130 -39 -46 -35 -43 30 21
l77 74 0 -177 c0 -97 3 -176 8 -176 4 1 44 40 89 88 l81 86 -169 175 c-93 96
-169 181 -169 189 0 7 37 51 82 97 l82 84 -87 89 c-89 90 -112 105 -56 35 45
-56 60 -90 61 -135 0 -42 -9 -59 -65 -126 l-35 -42 -64 72 c-94 105 -94 106
-51 158 20 24 54 63 76 86 l40 42 -76 86 c-43 47 -77 90 -77 95 0 5 34 48 76
96 70 78 75 87 61 101 -15 15 -16 14 -11 -4z m-63 -1009 c43 -46 76 -88 72
-94 -3 -5 0 -7 8 -5 8 4 34 -19 66 -57 63 -74 76 -98 67 -130 -5 -22 -109
-151 -124 -155 -7 -2 -89 95 -109 131 -24 41 -15 72 38 138 l52 63 -77 -75
c-42 -41 -76 -79 -76 -84 0 -5 36 -47 81 -93 l81 -82 -20 -28 c-11 -15 -50
-57 -87 -93 l-66 -65 8 80 c10 99 10 210 -1 249 l-7 29 -81 -79 c-72 -69 -75
-71 -26 -17 31 35 59 72 63 83 8 25 -11 56 -78 128 -28 28 -45 52 -40 52 6 0
43 -36 83 -81 54 -60 75 -77 82 -67 5 7 6 83 2 176 -3 89 -2 161 2 161 5 -1
44 -39 87 -85z m-343 -9 c13 -14 21 -25 18 -25 -2 0 -15 11 -28 25 -13 14 -21
25 -18 25 2 0 15 -11 28 -25z m6 -151 c-38 -40 -72 -71 -75 -69 -3 3 25 36 63
74 59 59 65 69 52 81 -9 7 -16 17 -16 24 0 6 10 0 23 -13 l22 -23 -69 -74z
m-71 -146 l40 -43 -45 40 c-25 22 -47 41 -49 43 -2 1 0 2 5 2 6 0 28 -19 49
-42z m-116 -216 c7 -13 11 -25 9 -27 -2 -2 -30 20 -63 48 l-60 52 35 32 35 31
15 -56 c9 -32 22 -68 29 -80z m258 73 c1 -1 -8 -7 -20 -14 -18 -11 -20 -11 -9
0 10 11 6 20 -20 49 l-33 35 40 -35 c22 -19 41 -35 42 -35z m449 -124 c15 -30
15 -36 0 -75 -9 -23 -35 -68 -58 -100 l-43 -57 -48 53 c-59 66 -80 104 -73
132 3 12 33 54 66 94 l62 73 38 -43 c22 -24 47 -58 56 -77z m-598 -31 c-27
-37 -38 -37 -69 -2 l-24 27 28 -24 28 -25 27 27 c35 35 38 34 10 -3z m-62 -62
c-8 -13 -43 -47 -78 -77 l-63 -54 75 76 c41 43 76 77 77 77 2 0 -3 -10 -11
-22z"/>
<path d="M1765 3728 l-50 -52 50 43 c28 24 54 48 60 53 5 5 5 8 -1 8 -5 0 -32
-23 -59 -52z"/>
<path d="M750 3761 c0 -5 11 -33 25 -63 22 -49 28 -55 50 -50 24 4 24 5 -22
63 -47 60 -53 66 -53 50z"/>
<path d="M3180 3685 l-84 -84 84 -85 c46 -47 85 -84 88 -82 2 2 -10 23 -27 46
-36 50 -55 131 -42 178 5 18 24 50 41 72 18 22 30 40 28 40 -2 0 -41 -38 -88
-85z"/>
<path d="M2598 3722 c33 -47 48 -111 37 -161 -4 -17 -23 -55 -42 -84 l-35 -52
67 65 c36 36 75 77 85 91 l19 26 -81 79 c-64 63 -74 70 -50 36z"/>
<path d="M1914 3657 c-1 -17 -20 -74 -43 -125 -24 -52 -41 -95 -39 -97 2 -3
42 33 88 80 l84 84 -40 45 c-21 24 -41 45 -44 45 -3 1 -5 -14 -6 -32z"/>
<path d="M975 3650 c-16 -16 -24 -30 -18 -30 7 0 21 14 33 30 12 17 20 30 18
30 -3 0 -17 -13 -33 -30z"/>
<path d="M905 3580 c-3 -5 -1 -10 4 -10 6 0 11 5 11 10 0 6 -2 10 -4 10 -3 0
-8 -4 -11 -10z"/>
<path d="M1965 3534 c-55 -68 -79 -117 -70 -145 4 -11 29 -48 57 -82 51 -62
50 -61 -33 20 l-84 82 -4 -167 c-1 -92 -5 -169 -7 -171 -3 -3 -34 24 -71 60
-63 61 -64 62 -26 14 51 -62 58 -86 39 -123 -14 -26 -99 -112 -111 -112 -12 0
-50 22 -75 44 -14 11 -5 0 19 -26 40 -42 42 -47 25 -56 -28 -15 -212 -62 -242
-62 -26 -1 -25 -2 21 -45 27 -25 55 -45 63 -45 7 0 28 13 46 29 130 116 658
654 658 671 0 7 -35 49 -78 93 l-79 80 -48 -59z"/>
<path d="M2722 3578 c-27 -35 -42 -82 -42 -136 0 -63 21 -145 45 -177 15 -19
17 -17 73 40 31 33 68 72 81 87 l24 27 -78 86 c-43 47 -81 85 -85 85 -4 0 -12
-6 -18 -12z"/>
<path d="M3006 3509 c-42 -44 -76 -84 -76 -87 1 -4 37 -45 81 -92 l80 -85 34
39 c48 54 59 93 45 160 -10 51 -62 146 -80 146 -4 0 -42 -36 -84 -81z"/>
<path d="M3305 3450 l-29 -31 53 -52 54 -52 -43 53 -43 52 22 30 c28 38 23 38
-14 0z"/>
<path d="M1779 3458 c20 -26 7 -57 -50 -123 -52 -59 -51 -59 22 12 l74 73 -30
27 c-16 16 -23 20 -16 11z"/>
<path d="M2832 3328 l-72 -80 17 -28 c24 -37 128 -150 139 -150 4 0 26 17 49
38 l40 37 -37 -40 c-21 -23 -38 -45 -38 -49 0 -11 151 -166 162 -166 12 0 69
66 91 103 9 18 17 43 17 56 0 33 -32 97 -74 146 l-33 39 -41 -42 c-22 -23 -44
-42 -48 -42 -5 0 12 20 36 45 l43 44 -83 86 c-46 47 -86 85 -89 84 -3 0 -39
-36 -79 -81z"/>
<path d="M3180 3324 l-84 -85 88 -87 c49 -48 85 -78 81 -67 -29 77 -37 108
-42 167 -5 60 -3 71 21 112 15 25 25 46 23 46 -2 0 -41 -39 -87 -86z"/>
<path d="M2715 3194 c-14 -30 -16 -51 -11 -108 9 -96 27 -196 34 -196 4 0 42
35 86 78 l80 77 -62 -69 c-81 -90 -81 -101 5 -200 l68 -79 83 88 c45 49 81 91
80 95 -4 11 -334 350 -340 350 -3 0 -14 -16 -23 -36z"/>
<path d="M3325 3110 l-50 -50 74 -73 74 -72 -56 64 c-32 36 -57 71 -57 79 0 7
16 34 36 58 20 24 35 44 32 44 -2 0 -26 -23 -53 -50z"/>
<path d="M3098 2875 c-93 -95 -168 -177 -168 -181 0 -5 37 -45 81 -90 l81 -82
44 49 c86 97 92 142 27 220 -70 84 -67 84 21 -1 49 -47 86 -76 82 -65 -4 11
-12 61 -17 110 -10 90 -5 154 13 188 5 10 8 20 6 22 -2 2 -78 -75 -170 -170z"/>
<path d="M1335 2938 l-50 -53 53 50 c48 46 57 55 49 55 -1 0 -25 -24 -52 -52z"/>
<path d="M1185 2795 c-44 -41 -75 -74 -70 -75 6 0 44 34 85 75 41 41 72 75 70
75 -3 0 -41 -34 -85 -75z"/>
<path d="M3327 2742 l-47 -48 52 -49 52 -50 -37 44 c-20 25 -37 51 -37 58 0 7
16 31 36 53 50 55 38 50 -19 -8z"/>
<path d="M1315 2746 c-16 -7 -52 -34 -80 -59 l-50 -45 29 -31 c17 -17 34 -31
39 -31 5 0 54 25 110 57 l101 56 -39 34 c-41 36 -63 40 -110 19z"/>
<path d="M1070 2685 c-20 -24 -6 -28 15 -5 10 11 13 20 8 20 -6 0 -16 -7 -23
-15z"/>
<path d="M2865 2638 c-55 -61 -85 -106 -85 -129 0 -9 27 -49 61 -90 l61 -74
-82 83 c-46 45 -84 82 -85 82 -2 0 -13 -115 -21 -235 -4 -60 -2 -85 8 -98 13
-17 27 -4 186 158 141 144 171 179 163 193 -5 9 -43 50 -84 90 l-74 73 -48
-53z"/>
<path d="M3096 2511 c-93 -93 -167 -173 -165 -179 8 -22 152 -163 160 -155 22
24 79 144 84 178 6 41 4 46 -54 127 -13 18 13 -3 59 -47 45 -44 74 -67 65 -52
-15 23 -17 41 -11 106 3 42 13 102 20 132 8 30 13 55 12 56 -1 1 -78 -74 -170
-166z"/>
<path d="M1147 2602 c-24 -27 -21 -38 18 -62 29 -18 38 -20 50 -10 8 7 23 9
32 6 10 -4 -2 13 -27 38 -24 25 -47 46 -51 46 -3 0 -13 -8 -22 -18z"/>
<path d="M1268 2486 c-26 -19 -22 -30 4 -12 17 12 25 13 37 3 14 -11 14 -10 2
6 -16 20 -20 21 -43 3z"/>
<path d="M3337 2392 c-51 -52 -56 -60 -42 -72 13 -11 15 -10 9 3 -4 11 11 35
47 72 69 73 59 71 -14 -3z"/>
<path d="M1494 2368 l-29 -33 33 29 c30 28 37 36 29 36 -2 0 -16 -15 -33 -32z"/>
<path d="M2837 2245 c-42 -48 -77 -92 -77 -96 0 -5 17 -28 37 -51 l37 -43 -47
45 c-55 52 -52 54 -117 -74 -45 -88 -47 -101 -24 -136 10 -14 -7 -2 -36 25
-46 44 -51 46 -38 20 19 -39 15 -51 -42 -160 l-48 -92 -38 36 c-31 30 -33 31
-16 7 12 -16 22 -35 22 -44 0 -16 -86 -136 -119 -166 -11 -10 -25 -15 -30 -11
-6 3 -11 -2 -11 -13 0 -10 -32 -50 -72 -88 -39 -38 -85 -84 -102 -102 -43 -47
-175 -146 -183 -139 -3 4 22 48 55 98 34 50 62 97 62 104 0 7 -8 23 -18 35
l-18 23 -51 -54 c-28 -30 -67 -74 -87 -97 -20 -24 -36 -41 -36 -37 0 3 -31
-29 -70 -72 -38 -43 -157 -163 -265 -267 -107 -104 -195 -193 -195 -198 0 -23
39 -17 125 21 103 45 123 49 163 25 15 -9 -2 11 -38 44 -62 59 -76 84 -23 42
34 -27 51 -25 141 11 43 18 92 37 110 44 l34 12 -56 48 c-31 26 -54 50 -52 53
3 3 24 -12 46 -32 22 -20 46 -36 54 -36 16 0 79 42 142 97 l48 42 -19 23 -20
23 22 -18 c21 -18 22 -18 106 60 47 43 85 84 86 91 1 6 5 12 10 12 14 0 151
131 146 140 -5 8 22 36 40 42 5 2 9 6 8 9 -1 3 113 120 253 260 140 139 254
260 254 266 0 7 7 13 14 13 17 0 156 156 156 175 0 6 -33 47 -73 90 l-72 78
-78 -88z m-935 -1130 c-20 -12 -39 -21 -40 -19 -2 1 6 16 19 33 19 26 20 33 8
48 -7 10 1 5 19 -11 l32 -30 -38 -21z"/>
<path d="M1363 2244 l-78 -76 83 72 c45 40 82 74 82 76 0 10 -15 -2 -87 -72z"/>
<path d="M2918 1969 c-558 -570 -754 -766 -923 -926 -88 -83 -157 -155 -153
-158 4 -4 49 4 100 19 107 30 156 33 201 10 25 -13 16 0 -43 62 -59 61 -66 70
-30 43 39 -30 51 -34 101 -33 58 1 120 25 169 64 l25 21 -65 59 c-36 33 -61
60 -56 60 4 0 33 -22 63 -50 30 -28 59 -50 64 -50 5 0 47 35 93 77 l84 78 -26
22 c-38 30 -60 32 -139 13 l-68 -18 55 49 c30 27 59 49 65 49 5 0 33 -23 62
-52 50 -50 52 -51 75 -35 33 23 344 326 336 327 -4 0 -42 -31 -84 -70 -43 -38
-84 -70 -92 -70 -9 0 -25 8 -36 17 -12 10 -9 4 6 -13 l28 -30 -53 -32 c-28
-17 -80 -38 -114 -47 -57 -15 -65 -15 -93 0 -16 8 -30 17 -30 19 0 2 41 40 90
85 50 44 88 81 85 81 -4 0 8 12 27 27 74 60 150 143 145 157 -4 10 -1 13 9 9
10 -3 35 16 72 58 95 105 97 108 82 133 -13 21 -13 21 9 2 11 -11 23 -17 25
-15 45 54 119 177 120 200 1 34 7 36 24 9 17 -28 27 -25 28 8 1 24 31 76 103
173 7 11 11 19 8 19 -3 0 -160 -158 -349 -351z"/>
<path d="M1476 2164 c-31 -11 -96 -45 -115 -61 -3 -2 8 -17 24 -33 37 -38 84
-40 151 -4 47 24 104 71 104 84 0 10 -65 30 -96 29 -16 0 -46 -7 -68 -15z"/>
<path d="M1244 2128 l-29 -33 33 29 c17 17 32 31 32 33 0 8 -8 1 -36 -29z"/>
<path d="M1561 2054 c-68 -63 -96 -102 -49 -70 49 34 170 5 222 -53 18 -20 18
-22 3 -39 -24 -26 -21 -39 4 -16 26 23 43 13 86 -49 44 -65 51 -116 23 -170
-20 -39 -15 -36 67 46 l88 87 -87 87 -87 87 -33 -29 -33 -30 29 32 30 33 -25
26 c-40 44 -139 124 -153 124 -8 0 -46 -30 -85 -66z"/>
<path d="M1311 2051 l-24 -18 33 -31 c30 -26 38 -28 63 -20 20 7 37 7 55 -1
20 -8 13 2 -26 39 -29 27 -59 50 -65 50 -7 0 -23 -9 -36 -19z"/>
<path d="M3289 1983 c-13 -16 -12 -17 4 -4 16 13 21 21 13 21 -2 0 -10 -8 -17
-17z"/>
<path d="M1440 1935 c-26 -28 -17 -35 11 -9 17 15 20 15 46 -4 45 -33 303
-297 303 -311 0 -7 -30 -45 -67 -84 l-67 -72 79 77 80 78 -175 175 c-96 96
-177 175 -181 175 -3 0 -16 -11 -29 -25z"/>
<path d="M3180 1873 l-85 -88 88 85 c48 46 87 86 87 87 0 8 -11 -3 -90 -84z"/>
<path d="M1170 1897 c0 -2 15 -16 33 -33 l32 -29 -29 33 c-28 30 -36 37 -36
29z"/>
<path d="M1967 1741 c-64 -71 -71 -156 -20 -236 22 -35 16 -31 -47 30 -71 70
-72 70 -50 27 27 -52 23 -85 -27 -195 l-36 -78 -35 33 c-32 30 -33 30 -14 5
25 -33 22 -45 -29 -112 -54 -71 -95 -109 -110 -100 -8 6 -10 4 -5 -4 10 -15
-9 -36 -97 -112 -37 -32 -68 -62 -70 -66 -2 -8 -69 -64 -149 -124 l-47 -36 23
-22 24 -22 58 49 c109 91 484 464 477 475 -3 5 -2 7 4 4 11 -7 93 75 145 144
19 25 39 44 46 41 7 -2 12 3 12 11 0 8 7 21 17 28 31 27 113 130 113 144 0 15
-127 155 -140 155 -4 0 -24 -18 -43 -39z"/>
<path d="M2997 1695 c-48 -47 -84 -85 -80 -85 5 0 46 38 93 85 47 47 82 85 80
85 -3 -1 -45 -39 -93 -85z"/>
<path d="M3151 1500 c-24 -22 -47 -40 -51 -40 -4 0 -29 16 -56 36 l-49 37 49
-51 c48 -49 48 -50 26 -62 -12 -7 -72 -17 -132 -22 -94 -9 -115 -8 -151 6
l-42 16 80 -80 c44 -44 84 -80 90 -80 6 0 73 63 150 140 138 139 171 176 86
100z"/>
<path d="M3404 1482 c38 -39 53 -49 63 -40 15 12 17 22 3 13 -6 -4 -34 13 -63
36 l-52 43 49 -52z"/>
<path d="M2419 1483 l-34 -38 38 34 c34 33 42 41 34 41 -2 0 -19 -17 -38 -37z"/>
<path d="M1619 1413 c-13 -16 -12 -17 4 -4 9 7 17 15 17 17 0 8 -8 3 -21 -13z"/>
<path d="M3110 1420 c0 -4 42 -47 93 -95 50 -48 170 -165 265 -259 l172 -171
85 85 85 85 -82 73 c-46 39 -90 72 -99 72 -9 0 -47 -28 -85 -62 l-69 -62 74
77 c41 42 73 78 70 81 -18 17 -152 76 -184 81 -41 6 -40 6 -125 -52 -14 -9 9
19 50 61 41 43 62 70 47 61 -23 -15 -41 -17 -107 -12 -43 4 -104 15 -134 25
-31 10 -56 16 -56 12z"/>
<path d="M3565 1324 c55 -53 135 -130 178 -172 l77 -77 48 49 c26 27 41 45 34
42 -7 -4 -54 15 -108 44 -64 35 -104 50 -120 47 -31 -6 -30 0 4 36 20 23 22
27 7 19 -27 -14 -74 6 -147 64 -91 71 -80 50 27 -52z"/>
<path d="M3045 1345 c-16 -9 -52 -35 -78 -58 l-48 -42 91 -83 91 -84 85 84 86
83 -44 38 c-49 43 -109 77 -135 77 -10 0 -31 -7 -48 -15z"/>
<path d="M2717 1338 c-22 -4 -66 -27 -99 -50 l-61 -43 84 -77 c46 -43 89 -77
94 -77 6 0 48 35 94 77 l84 78 -51 43 c-60 49 -93 61 -145 49z"/>
<path d="M3940 1317 c0 -2 15 -16 33 -33 l32 -29 -29 33 c-28 30 -36 37 -36
29z"/>
<path d="M4326 1302 c-7 -12 19 -35 34 -30 7 2 3 11 -8 21 -11 10 -23 14 -26
9z"/>
<path d="M4244 1219 c-16 -17 -46 -45 -67 -61 l-39 -31 -61 59 c-34 32 -50 46
-37 29 36 -43 124 -125 134 -125 4 0 38 29 74 64 46 44 63 68 59 80 -10 24
-30 19 -63 -15z"/>
<path d="M4386 1242 c-7 -11 31 -48 41 -38 4 3 -2 16 -14 27 -11 12 -23 17
-27 11z"/>
<path d="M2821 1148 c-63 -61 -80 -83 -70 -90 84 -56 175 -86 222 -74 13 3 44
22 70 42 l48 38 -83 83 c-45 46 -87 83 -93 83 -5 0 -48 -37 -94 -82z"/>
<path d="M3186 1150 l-81 -81 55 -51 c30 -27 72 -61 92 -75 l37 -25 33 22 33
23 -32 -33 -32 -33 102 -59 c56 -32 108 -58 115 -58 7 0 38 23 68 52 l55 52
-173 173 c-95 95 -177 173 -182 173 -5 0 -45 -36 -90 -80z"/>
<path d="M2455 1145 c-76 -72 -78 -75 -60 -90 41 -33 85 -45 162 -45 65 0 85
5 122 25 23 14 45 25 47 25 2 0 -34 -37 -79 -81 -45 -45 -71 -74 -57 -65 14 9
45 26 70 38 40 19 51 20 97 10 29 -6 74 -25 100 -43 34 -22 -2 19 -118 135
-103 104 -172 166 -185 166 -10 -1 -55 -34 -99 -75z"/>
<path d="M4294 1149 c-27 -28 -61 -58 -76 -67 -26 -15 -26 -17 -11 -34 9 -10
20 -18 26 -18 9 0 43 26 110 87 l38 34 -19 24 -19 24 -49 -50z"/>
<path d="M3855 1096 l-30 -25 82 -82 82 -83 83 79 c46 44 84 85 86 91 2 7 -7
15 -18 19 -17 5 -30 -1 -55 -25 l-32 -31 -64 40 c-74 47 -93 50 -134 17z"/>
<path d="M2280 975 c-89 -89 -97 -105 -30 -56 47 34 126 56 170 46 17 -4 52
-23 78 -42 37 -28 28 -16 -38 51 -46 47 -87 86 -90 86 -3 0 -43 -38 -90 -85z"/>
<path d="M3011 979 c-47 -43 -81 -79 -75 -79 5 0 18 7 28 15 29 22 98 18 182
-10 41 -14 87 -25 101 -25 27 0 27 0 -17 -47 -28 -29 -34 -38 -16 -25 16 12
36 22 45 22 19 0 79 -39 144 -94 36 -31 44 -43 35 -53 -8 -11 -7 -12 6 -7 11
4 38 -16 91 -67 41 -40 77 -70 80 -67 3 2 -43 51 -103 108 -59 57 -177 172
-262 256 l-155 153 -84 -80z"/>
<path d="M3727 971 l-82 -80 75 -76 c41 -41 79 -75 85 -75 5 0 48 36 95 79
l85 79 -69 63 c-112 103 -95 103 -189 10z"/>
<path d="M4134 1002 c-23 -20 -62 -53 -85 -73 -38 -32 -42 -38 -30 -53 7 -9
19 -16 25 -16 6 0 41 27 78 59 37 33 77 66 90 75 22 16 22 16 3 31 -28 21 -35
19 -81 -23z"/>
<path d="M1740 795 c-47 -47 -82 -85 -78 -85 4 0 33 23 65 51 32 28 71 58 86
66 27 14 31 13 70 -13 l42 -26 -45 46 c-24 25 -47 46 -50 46 -3 0 -43 -38 -90
-85z"/>
<path d="M2140 833 l-45 -46 46 36 c53 42 55 43 83 20 15 -13 14 -10 -3 10
-14 15 -27 27 -31 27 -3 0 -26 -21 -50 -47z"/>
<path d="M2519 853 c-17 -20 -18 -23 -3 -10 11 9 27 17 34 17 7 0 23 -8 34
-17 15 -13 14 -10 -3 10 -14 15 -27 27 -31 27 -4 0 -17 -12 -31 -27z"/>
<path d="M2874 848 l-29 -31 32 21 c17 12 35 22 39 22 5 0 29 -19 54 -42 44
-42 44 -42 -5 10 -27 28 -52 52 -55 52 -4 0 -19 -14 -36 -32z"/>
<path d="M3555 797 c-44 -45 -73 -76 -65 -69 24 20 44 14 124 -38 42 -27 82
-50 89 -50 18 1 100 81 90 89 -4 4 -42 39 -83 79 l-76 71 -79 -82z"/>
<path d="M3906 791 c-72 -72 -87 -101 -53 -101 7 0 39 24 73 53 33 29 73 62
88 75 24 18 26 24 16 37 -23 27 -45 16 -124 -64z"/>
<path d="M1173 719 c-48 -34 -49 -36 -27 -67 l15 -22 45 34 c25 19 51 37 57
39 14 5 -20 47 -37 47 -6 -1 -30 -14 -53 -31z"/>
<path d="M4204 728 l-19 -23 23 19 c21 18 27 26 19 26 -2 0 -12 -10 -23 -22z"/>
<path d="M1609 663 l-34 -37 33 27 c19 15 40 27 48 27 9 0 12 5 9 10 -10 16
-19 12 -56 -27z"/>
<path d="M3756 641 l-57 -58 34 6 c29 5 117 70 117 86 0 2 -8 9 -18 14 -15 8
-29 0 -76 -48z"/>
<path d="M1245 646 c-30 -26 -46 -47 -41 -54 5 -9 15 -7 35 8 50 35 81 42 107
25 37 -24 28 -3 -14 31 l-38 32 -49 -42z"/>
<path d="M4085 608 l-80 -83 83 80 c76 74 87 85 79 85 -1 0 -38 -37 -82 -82z"/>
<path d="M1060 555 c13 -14 26 -25 28 -25 3 0 -5 11 -18 25 -13 14 -26 25 -28
25 -3 0 5 -11 18 -25z"/>
<path d="M3640 505 c7 -8 17 -15 22 -15 6 0 5 7 -2 15 -7 8 -17 15 -22 15 -6
0 -5 -7 2 -15z"/>
<path d="M3950 475 c-24 -25 -42 -45 -39 -45 3 0 25 20 49 45 24 25 42 45 39
45 -3 0 -25 -20 -49 -45z"/>
<path d="M1110 506 c0 -2 8 -10 18 -17 15 -13 16 -12 3 4 -13 16 -21 21 -21
13z"/>
</g>
</svg>
